{"title":"Princess.Cyd.2017.HDRip.XviD.AC3.LLG","magnet":"magnet:?xt=urn:btih:225010e1d6fb7648f3805dc37e862d4a1f8df3d3&dn=Princess.Cyd.2017.HDRip.XviD.AC3.LLG&tr=udp%3A%2F%2Ftracker.leechers-paradise.org%3A6969&tr=udp%3A%2F%2Fzer0day.ch%3A1337&tr=udp%3A%2F%2Fopen.demonii.com%3A1337&tr=udp%3A%2F%2Ftracker.coppersurfer.tk%3A6969&tr=udp%3A%2F%2Fexodus.desync.com%3A6969","uploader":"LifeLongg","categoryP":"video","categoryS":"movies","size":"1057173609","seeders":"5","leechers":"13","description":"******************************Screenshots:********************\r\n <a href=\"\nhttp://picserver4u.com/0891.html\" rel=\"nofollow\" target=\"_NEW\">\nhttp://picserver4u.com/0891.html</a>\r\n <a href=\"\nhttp://picserver4u.com/0892.html\" rel=\"nofollow\" target=\"_NEW\">\nhttp://picserver4u.com/0892.html</a>\r\n <a href=\"\nhttp://picserver4u.com/0893.html\" rel=\"nofollow\" target=\"_NEW\">\nhttp://picserver4u.com/0893.html</a>\r\n <a href=\"\nhttp://picserver4u.com/0894.html\" rel=\"nofollow\" target=\"_NEW\">\nhttp://picserver4u.com/0894.html</a>\r\n <a href=\"\nhttp://picserver4u.com/0895.html\" rel=\"nofollow\" target=\"_NEW\">\nhttp://picserver4u.com/0895.html</a>\r\n\r\n****************************************************************\r\n\r\nGeneral\r\nComplete name                            : Princess.Cyd.2017.HDRip.XviD.AC3.LLG.mp4\r\nFormat                                   : MPEG-4\r\nFormat profile                           : Base Media\r\nCodec ID                                 : isom (isom/iso2/avc1/mp41)\r\nFile size                                : 996 MiB\r\nDuration                                 : 1 h 36 min\r\nOverall bit rate                         : 1 441 kb/s\r\nWriting application                      : Lavf57.56.101\r\n\r\nVideo\r\nID                                       : 1\r\nFormat                                   : AVC\r\nFormat/Info                              : Advanced Video Codec\r\nFormat profile                           : <a href=\"/cdn-cgi/l/email-protection\" class=\"__cf_email__\" data-cfemail=\"3c74555b547c700f\">[email&#xA0;protected]</a>\r\nFormat settings                          : CABAC / 4 Ref Frames\r\nFormat settings, CABAC                   : Yes\r\nFormat settings, RefFrames               : 4 frames\r\nCodec ID                                 : avc1\r\nCodec ID/Info                            : Advanced Video Coding\r\nDuration                                 : 1 h 36 min\r\nBit rate                                 : 1 200 kb/s\r\nWidth                                    : 720 pixels\r\nHeight                                   : 400 pixels\r\nDisplay aspect ratio                     : 16:9\r\nFrame rate mode                          : Constant\r\nFrame rate                               : 23.976 (23976/1000) FPS\r\nColor space                              : YUV\r\nChroma subsampling                       : 4:2:0\r\nBit depth                                : 8 bits\r\nScan type                                : Progressive\r\nBits/(Pixel*Frame)                       : 0.174\r\nStream size                              : 815 MiB (82%)\r\n\r\n\r\nAudio\r\nID                                       : 2\r\nFormat                                   : AC-3\r\nFormat/Info                              : Audio Coding 3\r\nCodec ID                                 : ac-3\r\nDuration                                 : 1 h 36 min\r\nBit rate mode                            : Constant\r\nBit rate                                 : 256 kb/s\r\nChannel(s)                               : 6 channels\r\nChannel positions                        : Front: L C R, Side: L R, LFE\r\nSampling rate                            : 48.0 kHz\r\nFrame rate                               : 31.250 FPS (1536 SPF)\r\nBit depth                                : 16 bits\r\nCompression mode                         : Lossy\r\nStream size                              : 177 MiB (18%)\r\nService kind                             : Complete Main\r\nDefault                                  : Yes\r\nAlternate group                          : 1","last_updated":"2017-12-08T12:06:13.369Z","parsed":{"xt":"urn:btih:225010e1d6fb7648f3805dc37e862d4a1f8df3d3","dn":"Princess.Cyd.2017.HDRip.XviD.AC3.LLG","tr":["udp://exodus.desync.com:6969","udp://open.demonii.com:1337","udp://tracker.coppersurfer.tk:6969","udp://tracker.leechers-paradise.org:6969","udp://zer0day.ch:1337"],"infoHash":"225010e1d6fb7648f3805dc37e862d4a1f8df3d3","infoHashBuffer":{"type":"Buffer","data":[34,80,16,225,214,251,118,72,243,128,93,195,126,134,45,74,31,141,243,211]},"name":"Princess.Cyd.2017.HDRip.XviD.AC3.LLG","announce":["udp://exodus.desync.com:6969","udp://open.demonii.com:1337","udp://tracker.coppersurfer.tk:6969","udp://tracker.leechers-paradise.org:6969","udp://zer0day.ch:1337"],"urlList":[]}}